# xmcd CD database file
#
# Track frame offsets:
#	187
#	23312
#	48997
#	73555
#	95412
#	106602
#	135955
#	152470
#	182760
#	199317
#	225662
#	249915
#
# Disc length: 3695 seconds
#
# Revision: 1
# Processed by: cddbd v1.5.1PL2 Copyright (c) Steve Scherf et al.
# Submitted via: CDex 1.51
#
DISCID=850e6d0c
DTITLE=Various Artist - Afternoon Tea
DYEAR=1990
DGENRE=Jazz
TTITLE0=Bill Evans Trio/Spring Is Here
TTITLE1=Kenny Drew Trio/Ruby My Dear
TTITLE2=Art Pepper/You'd Be So Nice To Come Home To
TTITLE3=Hampton Hawes Trio/Easy Living
TTITLE4=Barbara Lea/Thursday's Child
TTITLE5=Sonny Rollins/Way Out West
TTITLE6=Benny carter/Ain't She Sweet
TTITLE7=Phineas Newborn Jr. Trio/Lush Life
TTITLE8=Joy Bryan/East Of The Sun
TTITLE9=Art Pepper/Stomping At The Savdy
TTITLE10=Andre Previn Trio/Tonight
TTITLE11=Shelly Manne Trio/With A Little Bit On Luck
EXTD=
EXTT0=
EXTT1=
EXTT2=
EXTT3=
EXTT4=
EXTT5=
EXTT6=
EXTT7=
EXTT8=
EXTT9=
EXTT10=
EXTT11=
PLAYORDER=
